<?xml version="1.0" encoding="UTF-8"?>
<svg xmlns="http://www.w3.org/2000/svg" xmlns:xlink="http://www.w3.org/1999/xlink" width="64pt" height="64pt" viewBox="0 0 64 64" version="1.1">
<g id="surface11766257">
<path style=" stroke:none;fill-rule:nonzero;fill:rgb(15.686275%,69.803922%,59.215686%);fill-opacity:1;" d="M 25 2 C 18.933594 2 14 6.933594 14 13 C 14 16.316406 15.480469 19.285156 17.808594 21.304688 C 14.355469 23.160156 12 26.8125 12 31 C 12 34.722656 13.863281 38.007812 16.699219 40 C 13.863281 41.992188 12 45.277344 12 49 C 12 55.066406 16.933594 60 23 60 C 29.066406 60 34 55.066406 34 49 L 34 24 L 41 24 C 47.066406 24 52 19.066406 52 13 C 52 6.933594 47.066406 2 41 2 Z M 25 6 L 41 6 C 44.859375 6 48 9.140625 48 13 C 48 16.859375 44.859375 20 41 20 L 25 20 C 21.140625 20 18 16.859375 18 13 C 18 9.140625 21.140625 6 25 6 Z M 23 24 L 30 24 L 30 38 L 23 38 C 19.140625 38 16 34.859375 16 31 C 16 27.140625 19.140625 24 23 24 Z M 42 24 C 37.582031 24 34 27.582031 34 32 C 34 36.417969 37.582031 40 42 40 C 46.417969 40 50 36.417969 50 32 C 50 27.582031 46.417969 24 42 24 Z M 23 42 L 30 42 L 30 49 C 30 52.859375 26.859375 56 23 56 C 19.140625 56 16 52.859375 16 49 C 16 45.140625 19.140625 42 23 42 Z M 23 42 "/>
</g>
</svg>
