<?xml version="1.0" encoding="utf-8"?>
<!-- Generator: Adobe Illustrator 23.0.0, SVG Export Plug-In . SVG Version: 6.00 Build 0)  -->
<svg version="1.1" id="Laag_1" xmlns="http://www.w3.org/2000/svg" xmlns:xlink="http://www.w3.org/1999/xlink" x="0px" y="0px"
	 viewBox="0 0 236.51 290.72" style="enable-background:new 0 0 236.51 290.72;" xml:space="preserve">
<style type="text/css">
	.st0{fill:#8D2513;}
	.st1{fill:#EABEA7;}
	.st2{fill:#C88B71;}
	.st3{opacity:0.26;fill:#78412A;enable-background:new    ;}
	.st4{fill:#F8E6E0;}
	.st5{fill:#020203;}
	.st6{fill:#0C0915;}
	.st7{fill:#FFFFFF;}
	.st8{fill:none;stroke:#C88B71;stroke-miterlimit:10;}
	.st9{opacity:0.4;fill:#F0807A;enable-background:new    ;}
	.st10{fill:none;stroke:#B65317;stroke-width:4;stroke-miterlimit:10;}
</style>
<path class="st0" d="M-1,124.1c-0.19,3.34-0.06,6.69,0.37,10c0.85,6.45-0.12,12.89-0.35,19.45c-0.4,11.08,0.63,22.16,1.95,33.15
	c1.32,10.97,2.89,21.92,3.53,32.96c0.42,7.2-1.61,14.26-1.56,21.44c0.06,9.33,7.6,7.03,15.4,7.61c19.99,1.49,39.71,0.75,59.52,1.17
	c10.83,0.23,21.66,2.29,32.43,1.14c4.95-0.53,9.44-2.25,14.2-3.28c5.56-1.21,11.66-0.54,17.39-0.11
	c12.49,0.93,25.07,1.59,37.51,2.47c12.86,0.91,24.87-1.04,37.74-1.03c4.94,0,15.29,4.09,17.18-1.23c0.86-2.41-1.34-7-1.58-9.54
	c-0.38-4.04-0.06-7.89,1.42-11.7c0.8-2.07,1.84-4.07,2.21-6.25c0.69-4.08-1.04-8.13-2.05-12.14c-1.47-5.84-1.42-11.94-1.37-17.96
	c0.12-14.32,0.25-28.64,0.37-42.96c0.05-5.26,0.82-10.56,1.16-15.81c0.39-6.08,2.13-12.65,0.58-18.68
	c-0.04-0.15-0.09-0.31-0.21-0.41c-0.16-0.13-0.39-0.1-0.6-0.07c-8.98,1.62-17.81,3.22-26.99,3.54c-41.47,1.45-82.93,2.89-124.4,4.34
	c-8.33,0.29-16.65,0.58-24.98,0.87c-3.53,0.12-7.18,0.57-10.66-0.18c-3.26-0.7-6.29-2.22-9.57-2.86c-2.69-0.52-5.46-0.44-8.2-0.39
	c-4.19,0.08-8.21-0.94-12.25-2.13c-5.37-1.59-10.53-3.93-15.27-6.93c-0.48-0.3-1.05-0.62-1.58-0.42c-0.68,0.27-0.78,1.18-0.76,1.92
	C-0.31,114.93-0.73,119.31-1,124.1z"/>
<g id="myFace" transform="translate(-20.937 -10.675)">
	<path id="Path_18" class="st1" d="M172.75,280.54l-36.42,17.15c0,0-43.14-20.69-32-24.75c7.43-2.65,8.84-4.95,9.19-11.67
		c7.99,2.28,16.27,3.41,24.58,3.36c7.27,0.06,14.53-0.84,21.57-2.65c0.88,16.44,7.96,10.79,7.96,10.79L172.75,280.54z"/>
	<path id="Path_19" class="st2" d="M159.67,262.15c-7.04,1.83-14.3,2.72-21.57,2.65c-8.31,0.02-16.58-1.11-24.58-3.36
		c0.18-3.18,0-7.6,0.18-13.62l45.97,4.42C159.49,255.55,159.51,258.85,159.67,262.15z"/>
	<ellipse id="Ellipse_3" class="st1" cx="137.75" cy="164.55" rx="97.25" ry="92.47"/>
	<path class="st0" d="M244.01,175.51c-0.17,0.53-2.12,4.42-2.12,4.96c-2.47,5.83-5.66,6.71-5.66,14.32
		c-1.41-5.84,1.24-4.95,0.18-10.79c-2.22,7.33-3.76,14.85-4.6,22.46c-0.53-14.86-0.88-13.79-2.12-28.47
		c-0.89-10.08-1.59-20.51-5.84-29.88c-3.71-8.13-8.66-19.1-15.56-24.75c-10.96-8.85-26.16-6.72-39.25-8.31
		c-8.46-1.03-16.65-3.53-24.65-6.4c-7.43-2.67-13.59-5.92-21.59-6.09c-1.36-0.03-2.75-0.05-4.07,0.28
		c-1.01,0.26-1.96,0.72-2.97,0.99c-1.84,0.51-3.72,0.12-5.55,0.47c-1.56,0.3-3.08,1.04-4.71,1.3c-1.49,0.24-2.99,0.37-4.49,0.4
		c-1.5,0.03-3-0.05-4.49-0.23c-1.5-0.18-2.99-0.45-4.46-0.82c-1.5-0.37-2.97-0.84-4.41-1.38c-1.48-0.56-2.93-1.2-4.35-1.91
		c-0.68-0.34-1.35-0.7-2.02-1.08c-0.34-0.19-0.67-0.38-1-0.58c-0.17-0.1-0.34-0.2-0.51-0.31c-0.08-0.05-0.17-0.1-0.25-0.16
		c-0.05-0.03-0.13-0.12-0.19-0.12c-0.01,0.28-0.19,0.61-0.29,0.87c-0.11,0.3-0.22,0.61-0.34,0.91c-0.24,0.63-0.48,1.26-0.73,1.89
		c-0.51,1.29-1.05,2.56-1.64,3.82c-0.53,1.16-1.1,2.3-1.74,3.4c-0.5,0.85-1.03,1.71-1.71,2.43c-0.09,0.1-0.18,0.19-0.28,0.28
		c-0.04,0.03-0.27,0.19-0.27,0.23c0-3-1.59-6.01-3.01-8.13c0.71,12.02-3.18,26.34-16.62,41.2c-0.78,0.87-1.6,1.69-2.47,2.48
		c0,5.65-1.42,13.08-6.37,22.27c0.36,11.32,0.89,24.05,0.89,34.13c-10.26-18.57-14.15-32.36-15.21-41.38
		c-1.21,3.48-2.68,6.85-4.42,10.08c2.3-28.82-3.01-43.85-3.01-43.85c-7.42-61,22.1-82.57,41.9-82.57v0.35
		c1.95-1.23,4.07-1.94,4.78-4.42c2.83-8.48,11.31-14.14,18.74-18.38c9.37-5.3,19.98-7.96,30.42-10.08
		c9.72-2.12,19.44-3.89,29.17-4.25c27.41-0.88,54.63,11.32,75.68,28.29c19.97,16.09,30.05,40.85,34.65,65.42
		C257.63,157.48,249.14,160.3,244.01,175.51z"/>
	<path id="Path_21" class="st3" d="M242.24,179.05c-0.05,0.49-0.17,0.96-0.35,1.42C241.9,179.97,242.02,179.49,242.24,179.05z"/>
	<circle id="Ellipse_4" class="st4" cx="197.86" cy="149.17" r="10.43"/>
	<g id="Group_6" transform="translate(187.253 138.733)">
		<path id="Path_25" class="st5" d="M20.51,7.96c0.04,1.57-0.53,3.09-1.59,4.24c-2.22,2.27-5.86,2.3-8.13,0.08s-2.3-5.86-0.08-8.13
			c2-2.04,5.2-2.3,7.51-0.61c-1.99-2.21-4.81-3.49-7.78-3.54C4.67,0.01,0,4.68,0,10.44c0,5.76,4.67,10.43,10.43,10.43
			c5.76,0,10.43-4.67,10.43-10.43C20.91,9.6,20.79,8.76,20.51,7.96z"/>
	</g>
	<g id="shirt" transform="translate(38.73 270.812)">
		<path id="Path_26" class="st6" d="M0,26.7C9.37,16.45,10.43,0.54,47.74,0l12.73,26.7H0z"/>
		<path id="Path_27" class="st6" d="M191.31,26.7C181.94,16.45,180.88,0.54,143.57,0l-12.73,26.7H191.31z"/>
	</g>
	<g id="collar" transform="translate(76.283 269.836)">
		<path id="Path_28" class="st7" d="M92.05,0.1c9.55,0,35.19-1.95,22.1,12.02c-13.26,13.97-17.33,17.33-27.23,18.92
			c-9.72,1.77-26.7-1.41-27.58-3.18c-0.21-0.33-0.52-0.57-0.88-0.71c1.42,1.41,14.14-8.31,15.56-9.37c3.71-2.83,7.6-5.66,11.14-8.84
			c1.71-1.41,3.25-3.01,4.6-4.77C90.11,3.28,91.34,0.1,92.05,0.1z"/>
		<path id="Path_29" class="st7" d="M25.75,0.1c-9.55,0-35.19-1.95-22.1,12.02c13.26,13.97,17.33,17.33,27.23,18.92
			c9.73,1.77,26.7-1.41,27.58-3.18c0.21-0.33,0.52-0.57,0.88-0.71c-1.42,1.41-14.14-8.31-15.56-9.37c-3.71-2.83-7.6-5.66-11.14-8.84
			c-1.71-1.41-3.25-3.01-4.6-4.77C27.69,3.28,26.45,0.1,25.75,0.1z"/>
	</g>
	<path id="Path_30" class="st8" d="M137.22,180.29c0,0,9.19,7.43,17.68,0"/>
	<circle id="Ellipse_5" class="st4" cx="91.77" cy="149.17" r="10.43"/>
	<g id="Group_7" transform="translate(81.165 138.733)">
		<path id="Path_31" class="st5" d="M20.51,7.96c0.04,1.57-0.53,3.09-1.59,4.24c-2.22,2.27-5.86,2.3-8.13,0.08s-2.3-5.86-0.08-8.13
			c2-2.04,5.2-2.3,7.51-0.61C16.22,1.33,13.4,0.05,10.43,0C4.67,0,0,4.68,0,10.44s4.67,10.43,10.43,10.43s10.43-4.67,10.43-10.43
			l0,0C20.91,9.6,20.79,8.76,20.51,7.96z"/>
	</g>
	<path id="Path_32" class="st8" d="M124.84,220.42c0,0,16.44,13.44,31.83,0"/>
	<ellipse id="Ellipse_6" class="st9" cx="90.36" cy="182.41" rx="22.1" ry="15.56"/>
	<ellipse id="Ellipse_7" class="st9" cx="199.98" cy="182.41" rx="22.1" ry="15.56"/>
	<g id="glasses" transform="translate(49.833 117.346)">
		<path id="Path_33" class="st10" d="M106.83,36.77c-2.12-14.68,0.88-18.92,4.07-22.99s9.19-9.37,28.82-12.91
			c19.8-3.54,36.6,4.77,36.6,4.77s14.5,10.08,12.38,27.05s-6.54,25.28-16.8,33.24s-32.18,7.07-39.78,2.3
			C124.51,63.65,110.54,52.69,106.83,36.77z"/>
		<path id="Path_34" class="st10" d="M82.08,36.77c2.12-14.68-0.88-18.92-4.07-22.99S68.82,4.42,49.19,0.88
			c-19.8-3.54-36.6,4.77-36.6,4.77S-1.91,15.73,0.21,32.71c2.12,17.15,6.54,25.28,16.8,33.24s32.18,7.07,39.78,2.3
			C64.4,63.65,78.36,52.69,82.08,36.77z"/>
		<path id="Path_35" class="st10" d="M82.78,24.22c0,0,10.43-7.96,23.34,0"/>
	</g>
</g>
</svg>
