<?xml version="1.0" encoding="utf-8"?>
<!-- Generator: Adobe Illustrator 23.0.0, SVG Export Plug-In . SVG Version: 6.00 Build 0)  -->
<svg version="1.1" id="Laag_1" xmlns="http://www.w3.org/2000/svg" xmlns:xlink="http://www.w3.org/1999/xlink" x="0px" y="0px"
	 viewBox="0 0 553.6 555.01" style="enable-background:new 0 0 553.6 555.01;" xml:space="preserve">
<style type="text/css">
	.st0{fill:#161616;}
	.st1{fill:none;stroke:#161616;stroke-width:10;stroke-miterlimit:10;}
</style>
<g>
	<path class="st0" d="M193.91,124.25c-3.95,8.59-4.23,18.45-2.94,27.82c0.21,1.57,0.51,3.21,1.51,4.43
		c1.01,1.24,2.59,1.85,4.11,2.35c6.75,2.19,14.53,2.95,20.62-0.68c9.67-5.76,10.66-19.13,10.53-30.38
		c-0.05-4.77-0.16-9.77-2.48-13.95C216.98,98.9,198.48,114.34,193.91,124.25z"/>
	<path class="st0" d="M306.44,122.84c-2.01,4.56-2.39,9.65-2.71,14.63c-0.42,6.52-0.56,13.79,3.74,18.71
		c4.64,5.3,12.56,5.8,19.6,5.91c4.48,0.07,9.27,0.06,13.03-2.37c6.34-4.09,7.06-12.92,7.11-20.46
		C347.38,116.82,319.5,93.28,306.44,122.84z"/>
	<path class="st1" d="M38.77,348.2c2.06-6.79,3.95-13.59,5.18-20.51c3.42-19.27,8.44-38.44,9.21-58.08
		c0.71-18.29-3.6-29.74-13.46-45.13C27.33,205.18,12.76,186,5.87,163.84c-1.03-3.31-1.14-6.89-0.33-10.26
		c0.26-1.07,0.61-2.13,1.17-3.07c1.98-3.34,6.37-4.76,10.18-3.97c10.89,2.24,20.75,8.71,29.6,15.16
		c7.59,5.53,16.43,14.71,26.72,12.68c1.41-0.28,2.81-0.74,3.99-1.57c1.58-1.12,2.63-2.84,3.64-4.5c4.95-8.19,8.08-16.61,12.05-25.34
		c5.53-11.76,12.36-22.89,19.62-33.64c26.26-38.86,55.96-77.77,101.88-93.29C262.3-0.16,311.1,2.91,359.35,15.96
		c17.01,4.6,35.56,17.99,48.62,29.69c39.32,35.23,41.39,79.79,46.07,128.88c3.81,39.96,36.31,6.11,54.7-2.64
		c9.77-4.65,20.96-7.78,31.38-4.87c18.69,5.22,1.54,27.46-4.64,36.36c-9.8,14.13-21.48,27.19-28.13,43.26
		c-14.83,35.83-10.76,65.14-7.51,102.38c3.6,41.3,2.28,82.86-0.54,124.16c-1.35,19.83-3.07,39.64-4.81,59.44
		c-14.51,4.86-29.25-5.14-42.4-12.97c-13.14-7.83-32.05-13.04-42.12-1.52c-5.71,6.53-6.36,16.58-12.65,22.55
		c-4.31,4.08-10.43,5.46-16.24,6.68c-15.37,3.22-33.82,5.56-44.55-5.91c-8.46-9.04-9.45-24.54-20.35-30.42
		c-12.25-6.62-26.36,3.85-36.81,13.06c-10.85,9.56-22.66,18.68-36.55,22.69c-13.9,4-30.38,1.89-40.35-8.59
		c-3.46-3.64-6.01-8.1-9.69-11.51c-13.66-12.63-36.48-5.66-50.33,6.76c-5.47,4.91-10.41,10.61-16.92,14.01
		c-6.51,3.4-15.36,3.84-20.52-1.39c0.02-10.62,4.4-31.28-11.78-30.19c-9.66,0.65-20.48,6.88-27.92,12.79
		c-5.66,4.5-10.24,11.07-15.73,15.28c-4.99,3.82-12.5,3.12-18.61,1.09c-14.97-4.99-10.2-15.85-10.13-28.3
		c0.1-19.05,0.44-38.09,1.33-57.12c1.17-25.1,3.18-50.26,6.95-75.11C31.01,372.06,35.14,360.15,38.77,348.2z"/>
</g>
</svg>
